<svg width="404" height="262" viewBox="0 0 404 262" fill="none" xmlns="http://www.w3.org/2000/svg">
<path fill-rule="evenodd" clip-rule="evenodd" d="M175.044 200.79H73.4951C49.1946 200.79 29.4951 220.489 29.4951 244.79V261.341H23.4951V244.79C23.4951 217.176 45.8809 194.79 73.4951 194.79H175.044C198.943 194.79 218.926 211.558 223.87 233.971H217.704C212.883 214.902 195.611 200.79 175.044 200.79Z" fill="url(#paint0_linear_79_178)"/>
<path fill-rule="evenodd" clip-rule="evenodd" d="M252.159 141.009H353.707C378.008 141.009 397.707 160.708 397.707 185.009V201.56H403.707V185.009C403.707 157.394 381.322 135.009 353.707 135.009H252.159C228.629 135.009 208.895 151.262 203.572 173.155H209.774C214.949 154.612 231.965 141.009 252.159 141.009Z" fill="url(#paint1_linear_79_178)"/>
<path fill-rule="evenodd" clip-rule="evenodd" d="M152.158 6.26318H50.6094C26.3088 6.26318 6.60938 25.9626 6.60938 50.2631V66.8144H0.609375V50.2631C0.609375 22.6489 22.9951 0.263184 50.6094 0.263184H152.158C176.835 0.263184 197.336 18.1394 201.419 41.6483H195.315C191.31 21.4724 173.51 6.26318 152.158 6.26318Z" fill="url(#paint2_linear_79_178)"/>
<defs>
<linearGradient id="paint0_linear_79_178" x1="23.4951" y1="228.066" x2="223.87" y2="228.066" gradientUnits="userSpaceOnUse">
<stop stop-color="#FF66B2"/>
<stop offset="0.465" stop-color="#FDE9F3"/>
<stop offset="1" stop-color="#FC0D84"/>
</linearGradient>
<linearGradient id="paint1_linear_79_178" x1="203.572" y1="168.284" x2="403.707" y2="168.284" gradientUnits="userSpaceOnUse">
<stop stop-color="#FF66B2"/>
<stop offset="0.465" stop-color="#FDE9F3"/>
<stop offset="1" stop-color="#FC0D84"/>
</linearGradient>
<linearGradient id="paint2_linear_79_178" x1="0.609375" y1="33.5388" x2="201.419" y2="33.5388" gradientUnits="userSpaceOnUse">
<stop stop-color="#FF66B2"/>
<stop offset="0.465" stop-color="#FDE9F3"/>
<stop offset="1" stop-color="#FC0D84"/>
</linearGradient>
</defs>
</svg>
