<svg width="196" height="62" viewBox="0 0 196 62" fill="none" xmlns="http://www.w3.org/2000/svg">
<path d="M11.3688 24.8199C16.7506 24.8652 22.6035 23.7773 27.7471 22.0167C29.253 21.5025 29.4833 22.1473 29.6823 23.1059C29.899 24.1393 30.1534 26.4753 30.2229 27.5673C30.2913 28.622 29.9975 29.1851 29.244 29.4485L25.6679 30.7087C24.0003 31.3052 23.9585 31.8405 24.075 33.4358C24.075 33.4358 24.9841 44.096 24.9968 44.4806C25.0551 46.1467 24.4741 46.2824 23.8003 46.4412C22.3692 46.7777 21.4285 46.951 20.4432 47.0599C19.3049 47.1853 19.0161 46.7872 18.7273 45.5274C18.549 44.7511 16.9748 36.9846 16.5051 35.1655C15.9758 33.1162 15.7933 33.0004 14.3535 32.8127C13.8635 32.7515 10.6257 32.3947 10.3925 32.3811C9.21345 32.3159 8.71853 31.991 8.40826 31.2733C8.04094 30.4221 7.60267 26.1888 7.60267 26.1888C7.51422 24.0436 8.58933 24.7958 11.3688 24.8199ZM172.422 23.1341C170.09 24.8147 168.622 26.9571 168.645 30.3078C168.673 34.3827 175.198 37.4271 175.198 37.4271C178.72 39.2713 177.1 41.892 174.607 41.4125C172.411 40.9903 170.682 39.9159 169.258 38.8399C168.747 38.4536 167.885 38.7318 167.869 39.82C167.86 40.4272 167.856 42.0716 167.856 42.0716C167.853 42.5618 168.171 43.0624 168.626 43.5297C169.762 44.694 172.438 46.9563 178.109 46.9563C182.256 46.9563 186.877 45.1465 187.445 39.5907C187.731 36.7969 186.055 33.4145 180.533 30.9482C178.599 30.0829 177.74 29.1331 178.291 27.7974C178.812 26.527 180.77 26.3179 182.559 27.1862C184.57 28.1609 186.335 24.7891 184.511 23.5321C180.365 20.681 175.429 20.9686 172.422 23.1341Z" fill="#ED1B2E"/>
<path d="M50.0148 25.2711C48.7689 23.4576 46.6086 22.2377 44.0886 21.9206C40.6554 21.4919 37.1313 22.7264 34.1656 25.3977C30.3753 28.8109 28.3521 33.7077 28.885 38.1778C29.2764 41.4643 30.9643 44.0372 33.6363 45.4247C40.0843 48.7711 47.0464 43.8388 49.5932 38.9916C52.4639 33.5252 52.6017 29.037 50.0148 25.2711ZM42.1662 39.8557C40.7403 40.9558 38.1913 40.539 36.6501 38.4427C35.1077 36.3468 35.0584 33.5327 36.6501 32.2731C38.0619 31.1534 40.7148 31.6645 42.2699 33.7499C43.9227 35.9657 43.7984 38.5961 42.1662 39.8557Z" fill="#FAA61A"/>
<path d="M150.867 21.7836C150.311 21.8158 149.779 22.117 149.308 22.9594C148.913 23.6625 145.581 29.8195 145.519 37.7281C145.458 45.3361 152.894 49.3103 159.587 44.7042C167.256 39.4266 167.688 27.473 167.358 23.4754C167.272 22.4366 166.693 21.8881 165.743 21.8881C165.355 21.8881 164.15 21.9634 163.06 22.1168C161.975 22.2671 161.668 23.1479 161.668 24.0176C161.668 24.8859 162.19 31.4875 158.966 36.1801C155.742 40.873 153.051 37.8886 153.227 35.1414C153.485 31.1023 155.659 26.7742 156.134 25.5918C156.553 24.5488 156.228 23.6004 155.587 23.2861C154.885 22.9397 152.927 22.3327 151.879 21.96C151.543 21.8407 151.2 21.7644 150.867 21.7836ZM69.5911 22.1168C69.1061 22.1022 68.6569 22.3889 68.2927 22.9332C67.7911 23.7229 64.6116 28.2282 63.9015 28.9752C63.6089 29.2817 63.2777 29.3222 62.9448 29.0145L58.1186 22.7374C57.8273 22.2993 56.7261 21.7272 55.6154 22.5674C55.6154 22.5674 52.6127 25.3725 52.8204 25.1541C51.7755 26.2515 52.153 27.4362 53.2799 28.7533C53.917 29.4976 56.0316 32.3501 58.1186 34.9391C58.73 35.6993 57.3703 37.9699 54.3857 40.7786C53.2547 41.8425 53.3501 42.8115 54.0935 43.7571C54.7939 44.648 55.8287 45.7629 56.7645 46.2196C57.9332 46.7899 59.0073 46.6164 60.3547 45.6057C63.4014 43.3245 70.5781 34.1538 72.9575 28.3156C73.5135 26.9521 73.5663 25.3454 72.7091 24.4944C72.4062 24.1947 71.3171 23.0927 70.4978 22.4761C70.1872 22.2418 69.8819 22.1258 69.5911 22.1168Z" fill="#00AB4E"/>
<path d="M78.0531 23.1341C75.722 24.8147 74.2532 26.9571 74.2772 30.3078C74.3038 34.3827 80.8304 37.4271 80.8304 37.4271C84.3505 39.2713 82.731 41.892 80.2391 41.4125C78.0432 40.9903 76.3135 39.9159 74.8888 38.8399C74.3784 38.4536 73.5173 38.7318 73.4996 39.82C73.4907 40.4272 73.4883 42.0716 73.4883 42.0716C73.4845 42.5618 73.8024 43.0624 74.2583 43.5297C75.3929 44.694 78.0698 46.9563 83.7413 46.9563C87.8887 46.9563 92.5082 45.1465 93.0757 39.5907C93.3605 36.7969 91.6863 33.4145 86.1641 30.9482C84.2303 30.0829 83.3718 29.1331 83.9214 27.7974C84.4442 26.527 86.401 26.3179 88.1914 27.1862C90.2009 28.1609 91.9664 24.7892 90.1415 23.5321C85.9969 20.681 81.0594 20.9686 78.0531 23.1341Z" fill="#EC008C"/>
<path d="M88.495 20.1763C88.495 20.1763 83.7783 14.4706 92.0322 15.1715C92.0322 15.1715 106.154 16.0397 106.386 16.0681C106.617 16.0978 109.263 16.3696 111.277 13.6704C112.143 12.5127 118.275 5.57791 119.467 4.27163C120.713 2.90696 123.648 -0.48336 125.215 5.38857C125.215 5.38857 127.463 13.1009 128.55 16.36C129.29 18.5739 129.758 20.0492 133.899 21.4786L146.695 26.3824C146.695 26.3824 152.689 28.3756 146.773 31.9119C146.773 31.9119 134.627 38.9995 134.328 39.1944C133.285 39.8704 131.865 40.6739 131.525 44.171C131.382 45.6328 130.449 55.9038 130.362 57.2103C130.268 58.618 129.433 62.4788 124.815 58.3408C124.815 58.3408 117.072 51.4453 115.919 50.4243C115.657 50.1904 113.032 47.1448 108.662 48.7107L95.8392 52.906C95.8392 52.906 88.14 55.4886 91.2417 49.2475C94.2632 43.1674 96.3432 38.1192 97.0183 36.4912C97.7266 34.783 97.6122 32.3382 96.1593 30.5855C95.4945 29.781 89.784 22.0749 88.495 20.1763Z" fill="#0054A6"/>
<path d="M105.695 27.5995C105.695 27.5995 103.704 25.1899 107.189 25.4859C107.189 25.4859 113.153 25.8526 113.251 25.8646C113.348 25.8771 114.466 25.9919 115.316 24.852C115.682 24.3631 118.272 21.4345 118.775 20.8829C119.301 20.3066 120.541 18.8748 121.203 21.3546C121.203 21.3546 122.152 24.6115 122.611 25.9878C122.923 26.9228 123.121 27.5458 124.87 28.1494L130.273 30.2203C130.273 30.2203 132.805 31.062 130.306 32.5555C130.306 32.5555 125.177 35.5486 125.051 35.6309C124.611 35.9164 124.011 36.2556 123.867 37.7325C123.807 38.3498 123.413 42.6873 123.376 43.239C123.336 43.8335 122.984 45.4639 121.034 43.7165C121.034 43.7165 117.764 40.8045 117.277 40.3733C117.166 40.2745 116.058 38.9883 114.212 39.6496L108.797 41.4213C108.797 41.4213 105.546 42.5119 106.855 39.8763C108.131 37.3087 109.01 35.1768 109.295 34.4893C109.594 33.7679 109.546 32.7355 108.932 31.9953C108.651 31.6556 106.24 28.4012 105.695 27.5995Z" fill="#FEE20E"/>
<path d="M109.951 17.5538C109.951 17.5538 109.492 16.9982 110.295 17.0665C110.295 17.0665 111.671 17.151 111.693 17.1538C111.716 17.1567 111.973 17.1831 112.169 16.9203C112.254 16.8075 112.851 16.1322 112.967 16.005C113.088 15.8721 113.374 15.542 113.527 16.1138C113.527 16.1138 113.746 16.8648 113.852 17.1822C113.924 17.3978 113.969 17.5415 114.373 17.6807L115.619 18.1582C115.619 18.1582 116.202 18.3523 115.626 18.6967C115.626 18.6967 114.443 19.3869 114.414 19.4058C114.313 19.4717 114.174 19.5499 114.141 19.8905C114.127 20.0328 114.037 21.033 114.028 21.1603C114.019 21.2974 113.938 21.6733 113.488 21.2704C113.488 21.2704 112.734 20.5989 112.622 20.4994C112.596 20.4767 112.34 20.1801 111.915 20.3326L110.666 20.7411C110.666 20.7411 109.916 20.9926 110.218 20.3848C110.513 19.7927 110.715 19.3011 110.781 19.1426C110.85 18.9763 110.839 18.7382 110.697 18.5675C110.633 18.4892 110.076 17.7387 109.951 17.5538Z" fill="url(#paint0_diamond_63_108)"/>
<path d="M134.109 25.7512C134.109 25.7512 133.65 25.1956 134.454 25.2638C134.454 25.2638 135.829 25.3484 135.851 25.3512C135.874 25.3541 136.132 25.3805 136.328 25.1177C136.412 25.0049 137.009 24.3296 137.125 24.2024C137.247 24.0695 137.532 23.7394 137.685 24.3112C137.685 24.3112 137.904 25.0622 138.01 25.3796C138.082 25.5952 138.127 25.7388 138.531 25.878L139.777 26.3556C139.777 26.3556 140.36 26.5497 139.784 26.8941C139.784 26.8941 138.602 27.5843 138.572 27.6032C138.471 27.6691 138.333 27.7473 138.3 28.0879C138.286 28.2302 138.195 29.2304 138.186 29.3576C138.177 29.4947 138.096 29.8707 137.646 29.4677C137.646 29.4677 136.892 28.7962 136.78 28.6968C136.754 28.674 136.499 28.3775 136.073 28.5299L134.824 28.9385C134.824 28.9385 134.075 29.19 134.377 28.5822C134.671 27.9901 134.873 27.4985 134.939 27.34C135.008 27.1736 134.997 26.9356 134.856 26.7649C134.791 26.6865 134.235 25.9361 134.109 25.7512Z" fill="url(#paint1_diamond_63_108)"/>
<path d="M121.425 50.6881C121.425 50.6881 120.965 50.1325 121.769 50.2007C121.769 50.2007 123.144 50.2853 123.167 50.2881C123.189 50.2909 123.447 50.3174 123.643 50.0546C123.727 49.9418 124.325 49.2665 124.441 49.1393C124.562 49.0064 124.848 48.6762 125 49.2481C125 49.2481 125.219 49.9991 125.325 50.3165C125.397 50.5321 125.443 50.6757 125.846 50.8149L127.092 51.2925C127.092 51.2925 127.676 51.4866 127.1 51.8309C127.1 51.8309 125.917 52.5211 125.888 52.5401C125.786 52.606 125.648 52.6842 125.615 53.0247C125.601 53.1671 125.51 54.1673 125.502 54.2945C125.492 54.4316 125.411 54.8076 124.962 54.4046C124.962 54.4046 124.208 53.7331 124.095 53.6337C124.07 53.6109 123.814 53.3143 123.389 53.4668L122.14 53.8754C122.14 53.8754 121.39 54.1269 121.692 53.5191C121.986 52.927 122.189 52.4354 122.255 52.2769C122.324 52.1105 122.312 51.8725 122.171 51.7018C122.106 51.6234 121.55 50.873 121.425 50.6881Z" fill="url(#paint2_linear_63_108)"/>
<path d="M99.198 41.9535C99.198 41.9535 98.7387 41.3979 99.5425 41.4661C99.5425 41.4661 100.918 41.5507 100.94 41.5534C100.963 41.5563 101.22 41.5828 101.417 41.3199C101.501 41.2072 102.098 40.5319 102.214 40.4047C102.335 40.2718 102.621 39.9416 102.774 40.5134C102.774 40.5134 102.993 41.2645 103.099 41.5819C103.171 41.7975 103.216 41.9411 103.62 42.0803L104.866 42.5578C104.866 42.5578 105.449 42.7519 104.873 43.0963C104.873 43.0963 103.69 43.7865 103.661 43.8055C103.56 43.8713 103.422 43.9496 103.388 44.2901C103.374 44.4325 103.284 45.4327 103.275 45.5599C103.266 45.697 103.185 46.073 102.735 45.67C102.735 45.67 101.981 44.9985 101.869 44.8991C101.843 44.8763 101.588 44.5797 101.162 44.7322L99.9132 45.1408C99.9132 45.1408 99.1635 45.3923 99.4655 44.7845C99.7598 44.1924 99.9623 43.7008 100.028 43.5423C100.097 43.3759 100.086 43.1378 99.9444 42.9672C99.8797 42.8888 99.3236 42.1384 99.198 41.9535Z" fill="url(#paint3_diamond_63_108)"/>
<path d="M98.1307 21.7112C98.1307 21.7112 97.6713 21.1556 98.4751 21.2238C98.4751 21.2238 99.8504 21.3084 99.8729 21.3111C99.8954 21.314 100.153 21.3405 100.349 21.0776C100.434 20.9649 101.031 20.2896 101.147 20.1624C101.268 20.0295 101.554 19.6993 101.707 20.2711C101.707 20.2711 101.925 21.0222 102.031 21.3395C102.103 21.5551 102.149 21.6988 102.552 21.838L103.798 22.3155C103.798 22.3155 104.382 22.5096 103.806 22.854C103.806 22.854 102.623 23.5442 102.594 23.5632C102.492 23.629 102.354 23.7073 102.321 24.0478C102.307 24.1902 102.216 25.1904 102.208 25.3176C102.199 25.4547 102.117 25.8307 101.668 25.4277C101.668 25.4277 100.914 24.7562 100.801 24.6568C100.776 24.634 100.52 24.3374 100.095 24.4899L98.8458 24.8984C98.8458 24.8984 98.0961 25.1499 98.3981 24.5422C98.6924 23.9501 98.8949 23.4585 98.9607 23.2999C99.0296 23.1336 99.0185 22.8955 98.877 22.7248C98.8123 22.6465 98.2562 21.8961 98.1307 21.7112Z" fill="url(#paint4_linear_63_108)"/>
<path d="M118.399 30.0606C118.399 30.0606 117.94 29.5049 118.744 29.5732C118.744 29.5732 120.119 29.6577 120.141 29.6605C120.164 29.6634 120.422 29.6898 120.618 29.427C120.702 29.3143 121.299 28.6389 121.415 28.5117C121.537 28.3788 121.822 28.0487 121.975 28.6205C121.975 28.6205 122.194 29.3715 122.3 29.6889C122.372 29.9045 122.417 30.0482 122.821 30.1874L124.067 30.6649C124.067 30.6649 124.651 30.859 124.074 31.2034C124.074 31.2034 122.892 31.8936 122.863 31.9126C122.761 31.9784 122.623 32.0566 122.59 32.3972C122.576 32.5395 122.485 33.5397 122.476 33.667C122.467 33.8041 122.386 34.18 121.936 33.7771C121.936 33.7771 121.182 33.1056 121.07 33.0061C121.044 32.9834 120.789 32.6868 120.363 32.8393L119.114 33.2478C119.114 33.2478 118.365 33.4993 118.667 32.8915C118.961 32.2995 119.163 31.8079 119.229 31.6493C119.298 31.483 119.287 31.2449 119.146 31.0742C119.081 30.9959 118.525 30.2454 118.399 30.0606Z" fill="url(#paint5_linear_63_108)"/>
<path d="M187.263 23.9862C186.616 23.9862 186.039 23.5147 186.039 22.7039C186.039 21.8929 186.616 21.4215 187.263 21.4215C187.909 21.4215 188.487 21.8929 188.487 22.7039C188.487 23.5147 187.909 23.9862 187.263 23.9862ZM187.263 21.7196C186.781 21.7196 186.391 22.1138 186.391 22.7041C186.391 23.2935 186.781 23.6907 187.263 23.6865V23.6907C187.736 23.6907 188.135 23.2935 188.135 22.7041C188.135 22.1138 187.736 21.7196 187.263 21.7196ZM187.061 23.3922H186.781V22.0126H187.271C187.609 22.0126 187.809 22.1138 187.809 22.4294C187.809 22.6838 187.667 22.7743 187.494 22.7889L187.83 23.3922H187.497L187.194 22.8115H187.061V23.3922ZM187.31 22.5774C187.436 22.5774 187.509 22.5507 187.509 22.3989C187.509 22.2549 187.365 22.2457 187.258 22.2457H187.061V22.5774H187.31Z" fill="#231F20"/>
<defs>
<radialGradient id="paint0_diamond_63_108" cx="0" cy="0" r="1" gradientUnits="userSpaceOnUse" gradientTransform="translate(112.85 18.6202) rotate(90) scale(2.83116 3.02997)">
<stop stop-color="#EC008C"/>
<stop offset="1" stop-color="#86004F"/>
</radialGradient>
<radialGradient id="paint1_diamond_63_108" cx="0" cy="0" r="1" gradientUnits="userSpaceOnUse" gradientTransform="translate(137.008 26.8176) rotate(90) scale(2.83116 3.02997)">
<stop stop-color="#ED1B2E"/>
<stop offset="1" stop-color="#870F1A"/>
</radialGradient>
<linearGradient id="paint2_linear_63_108" x1="124.324" y1="48.9233" x2="124.324" y2="54.5857" gradientUnits="userSpaceOnUse">
<stop stop-color="#EC008C"/>
<stop offset="1" stop-color="#7B325D"/>
</linearGradient>
<radialGradient id="paint3_diamond_63_108" cx="0" cy="0" r="1" gradientUnits="userSpaceOnUse" gradientTransform="translate(102.097 43.0199) rotate(90) scale(2.83116 3.02997)">
<stop stop-color="#FEE20E"/>
<stop offset="1" stop-color="#988709"/>
</radialGradient>
<linearGradient id="paint4_linear_63_108" x1="101.03" y1="19.9464" x2="101.03" y2="25.6087" gradientUnits="userSpaceOnUse">
<stop stop-color="#00AB4E"/>
<stop offset="1" stop-color="#00451F"/>
</linearGradient>
<linearGradient id="paint5_linear_63_108" x1="121.299" y1="28.2958" x2="121.299" y2="33.9581" gradientUnits="userSpaceOnUse">
<stop stop-color="#00AB4E"/>
<stop offset="1" stop-color="#00451F"/>
</linearGradient>
</defs>
</svg>
